<svg width="512" height="640" viewBox="0 0 512 640" fill="none" xmlns="http://www.w3.org/2000/svg">
<rect y="64" width="512" height="512" rx="125" fill="#9F2D20"/>
<path d="M122.24 499V140.6H267.648C294.272 140.6 317.483 144.952 337.28 153.656C357.248 162.189 372.608 174.648 383.36 191.032C394.283 207.416 399.744 227.043 399.744 249.912C399.744 267.491 396.416 283.021 389.76 296.504C383.104 309.816 373.973 320.909 362.368 329.784C350.763 338.659 337.621 345.315 322.944 349.752L419.456 499H318.592L238.72 367.16H207.232V499H122.24ZM207.232 299.064H257.408C275.157 299.064 288.981 295.565 298.88 288.568C308.949 281.571 313.984 270.477 313.984 255.288C313.984 239.928 309.205 228.664 299.648 221.496C290.261 214.157 276.779 210.488 259.2 210.488H207.232V299.064Z" fill="white"/>
</svg>
